<?xml version="1.0" standalone="no"?>
<!DOCTYPE svg PUBLIC "-//W3C//DTD SVG 20010904//EN"
 "http://www.w3.org/TR/2001/REC-SVG-20010904/DTD/svg10.dtd">
<svg version="1.0" xmlns="http://www.w3.org/2000/svg"
 width="3168.000000pt" height="3168.000000pt" viewBox="0 0 3168.000000 3168.000000"
 preserveAspectRatio="xMidYMid meet">
<metadata>
Created by potrace 1.14, written by Peter Selinger 2001-2017
</metadata>
<g transform="translate(0.000000,3168.000000) scale(0.100000,-0.100000)"
fill="#000000" stroke="none">
<path d="M5467 18793 c-1 -1 -38 -3 -82 -4 -44 -1 -98 -6 -120 -11 -22 -6 -49
-11 -59 -14 -147 -30 -325 -146 -441 -288 -66 -81 -132 -216 -154 -316 -20
-92 -22 -107 -22 -205 0 -214 76 -403 226 -563 101 -109 224 -184 375 -229
149 -45 387 -34 525 23 93 38 132 59 184 97 224 161 351 401 353 665 2 140
-25 270 -63 305 -65 61 -170 41 -204 -40 -16 -37 -16 -38 11 -163 10 -51 6
-167 -10 -225 -86 -329 -424 -516 -741 -410 -166 56 -305 194 -365 365 -24 68
-33 211 -18 295 18 103 77 211 160 292 63 63 80 75 156 113 122 60 91 59 1207
59 978 0 1023 -1 1094 -19 189 -50 354 -207 406 -387 10 -37 13 -130 13 -388
-1 -187 -3 -345 -5 -351 -3 -8 -194 -11 -666 -11 -587 0 -666 -2 -693 -16 -93
-48 -87 -190 9 -226 15 -6 269 -10 608 -10 321 0 620 0 665 -1 l81 0 0 -1737
c0 -1457 3 -1805 18 -1863 96 -386 425 -648 815 -648 97 0 203 18 290 50 104
38 202 101 287 185 96 94 157 187 202 308 52 137 50 74 51 1949 0 962 2 1751
4 1753 1 2 314 4 695 4 734 1 729 1 878 50 90 29 213 107 293 185 293 284 339
726 110 1064 -122 179 -325 311 -541 350 -70 13 -917 17 -992 5 -286 -47 -505
-208 -632 -463 -67 -136 -68 -146 -67 -563 l0 -376 -579 0 -579 0 -1 241 c0
133 0 301 1 374 0 96 -4 148 -16 190 -94 326 -378 564 -714 598 -48 5 -1949
12 -1953 7z m5566 -281 c246 -90 401 -308 398 -555 -1 -98 -14 -153 -57 -242
-78 -165 -237 -289 -414 -323 -19 -3 -341 -6 -715 -7 l-680 0 0 375 0 375 40
80 c75 151 229 274 387 309 50 12 156 14 523 12 443 -2 462 -3 518 -24z
m-1768 -1382 l40 0 -1 -1747 c-1 -1283 -4 -1761 -12 -1795 -44 -179 -163 -327
-322 -400 -90 -42 -118 -48 -223 -53 -271 -11 -515 179 -583 452 -11 41 -14
3537 -4 3543 4 3 246 4 537 3 290 -2 546 -3 568 -3z"/>
<path d="M2015 18775 c-175 -39 -301 -109 -426 -235 -113 -114 -180 -240 -219
-415 -17 -76 -18 -196 -18 -2275 1 -2377 -2 -2277 54 -2418 64 -161 192 -320
327 -406 61 -39 173 -90 223 -102 325 -74 602 2 822 227 105 107 183 253 218
409 5 19 10 443 11 943 2 499 7 908 11 908 4 1 302 2 662 3 639 1 656 2 690
21 66 39 78 140 22 192 -25 24 -568 481 -697 587 -33 28 -62 52 -65 55 -3 4
-43 38 -90 77 -47 39 -185 155 -307 258 l-223 187 -1 612 c-1 337 -1 616 0
620 1 5 -5 43 -13 86 -33 171 -104 308 -225 431 -124 125 -259 201 -423 234
-92 19 -250 20 -333 1z m345 -265 c173 -59 309 -195 371 -373 22 -61 22 -71
24 -747 2 -758 -1 -720 67 -773 18 -14 46 -37 61 -51 16 -13 47 -40 70 -58 23
-18 57 -47 77 -64 19 -17 46 -40 60 -51 116 -96 226 -188 230 -193 3 -3 43
-37 90 -76 290 -243 540 -454 538 -455 -2 -1 -251 -2 -554 -3 -611 -1 -584 2
-620 -69 -16 -29 -17 -115 -19 -997 -1 -686 -4 -978 -13 -1010 -51 -202 -211
-366 -415 -425 -74 -21 -211 -21 -290 -1 -209 56 -370 225 -423 447 -4 13 -7
1007 -8 2209 -1 1715 1 2200 11 2253 39 214 222 404 436 453 87 19 225 12 307
-16z"/>
<path d="M14755 17835 c-7 -5 -22 -44 -35 -85 -12 -41 -28 -93 -35 -115 -7
-22 -32 -101 -55 -175 -23 -74 -57 -182 -75 -240 -18 -58 -36 -115 -40 -127
-6 -23 -6 -23 112 -23 l118 0 18 60 17 61 137 -3 137 -3 16 -55 16 -55 118 -3
118 -3 -7 33 c-4 18 -10 38 -13 43 -4 6 -7 15 -8 20 -3 12 -71 232 -152 489
l-59 190 -158 0 c-92 1 -163 -3 -170 -9z m213 -347 l40 -138 -89 0 c-49 0 -89
2 -89 5 0 3 9 38 21 78 11 39 30 105 41 146 13 46 24 68 29 60 4 -8 25 -76 47
-151z"/>
<path d="M20322 17829 c-143 -46 -220 -190 -168 -314 37 -89 102 -118 338
-155 90 -15 125 -41 114 -84 -9 -38 -49 -59 -110 -59 -84 -1 -146 37 -146 88
0 13 -18 15 -109 15 l-108 0 3 -32 c12 -104 83 -180 202 -218 83 -26 241 -24
322 5 73 26 152 103 167 162 22 85 -1 167 -58 217 -46 39 -105 59 -239 82
-129 21 -160 37 -160 79 0 44 36 67 106 69 63 1 104 -24 119 -72 l9 -32 103 0
c98 0 103 1 103 21 0 91 -84 191 -189 226 -88 28 -214 29 -299 2z"/>
<path d="M21720 17835 c-89 -23 -167 -89 -190 -161 -18 -53 -7 -147 22 -190
41 -62 133 -99 288 -119 81 -10 139 -34 146 -61 14 -55 -46 -94 -135 -87 -60
4 -104 31 -116 71 l-9 32 -108 0 -108 0 6 -37 c22 -141 140 -223 329 -229 238
-8 378 93 369 265 -8 125 -95 189 -299 216 -88 11 -135 27 -155 52 -19 24 -19
27 -3 54 20 33 52 46 109 44 52 -1 92 -27 110 -71 l14 -34 101 0 101 0 -4 38
c-13 106 -97 189 -226 222 -53 14 -181 11 -242 -5z"/>
<path d="M13120 17455 l0 -385 113 0 113 0 -1 153 0 152 133 3 132 3 0 -156 0
-155 113 0 112 0 0 383 0 382 -113 3 -112 3 0 -141 c0 -126 -2 -140 -17 -141
-81 -3 -232 -1 -239 4 -6 3 -10 66 -9 141 l1 136 -113 0 -113 0 0 -385z"/>
<path d="M16010 17456 l0 -386 113 0 113 0 -1 123 c-1 67 0 125 2 128 9 19 57
-9 91 -51 20 -26 63 -82 96 -124 l59 -76 124 0 c138 0 136 -1 78 65 -94 107
-165 193 -165 198 0 3 16 11 37 18 51 17 119 82 139 135 13 34 15 62 11 115
-9 103 -54 166 -152 211 -47 22 -64 23 -297 26 l-248 4 0 -386z m416 206 c32
-17 52 -45 55 -78 8 -74 -52 -114 -171 -114 -39 0 -71 3 -71 8 -3 19 -5 188
-2 194 5 10 167 2 189 -10z"/>
<path d="M17410 17455 l0 -385 105 0 105 0 0 237 c0 271 -3 266 77 113 28 -52
65 -120 82 -150 16 -30 47 -88 68 -127 l38 -73 122 0 123 0 0 385 0 385 -105
0 -105 0 0 -235 c0 -129 -3 -235 -8 -235 -4 0 -26 37 -50 83 -23 45 -65 123
-92 172 -28 50 -65 118 -82 153 l-33 62 -122 0 -123 0 0 -385z"/>
<path d="M18862 17455 l1 -385 300 2 300 3 0 85 0 85 -169 2 c-93 1 -179 2
-191 3 -22 0 -23 4 -23 68 l0 67 175 -1 c156 -2 175 0 176 15 0 9 1 41 1 71
l1 55 -176 3 -177 2 0 65 c0 55 3 65 18 66 9 1 92 1 185 0 188 0 168 -10 168
84 0 25 0 56 0 70 l-1 25 -294 0 -294 0 0 -385z"/>
<path d="M5320 16823 c-373 -53 -674 -365 -708 -736 -4 -39 -7 -612 -6 -1272
1 -1193 1 -1201 22 -1285 58 -231 216 -433 421 -539 138 -71 241 -95 401 -93
128 1 232 26 345 82 118 58 133 69 227 164 127 127 196 261 229 446 13 74 18
2415 5 2510 -15 108 -37 183 -78 264 -119 237 -336 402 -593 451 -65 12 -206
16 -265 8z m239 -258 c6 -3 23 -9 38 -11 44 -8 145 -63 203 -111 97 -80 155
-170 190 -294 20 -72 20 -98 20 -1274 0 -823 -3 -1220 -11 -1261 -66 -359
-460 -566 -799 -417 -46 20 -154 92 -170 113 -3 4 -23 28 -44 53 -51 61 -90
139 -111 224 -16 62 -17 168 -17 1268 0 898 3 1215 12 1260 17 84 81 211 137
271 84 91 218 167 317 181 23 3 42 7 44 8 7 6 181 -3 191 -10z"/>
<path d="M21217 16111 c-11 -4 -33 -33 -29 -38 1 -2 -7 -27 -17 -55 -10 -29
-35 -107 -56 -173 -78 -256 -136 -441 -146 -463 -5 -13 -9 -27 -9 -32 0 -6 50
-10 118 -10 l117 0 18 60 17 61 137 -3 136 -3 17 -55 17 -55 117 -3 c64 -1
116 0 116 4 0 7 -231 757 -235 762 -4 4 -304 7 -318 3z m172 -258 c11 -38 31
-104 44 -148 l24 -80 -85 -3 c-46 -2 -87 -1 -89 2 -4 4 78 296 83 296 2 0 12
-30 23 -67z"/>
<path d="M24927 16100 c-227 -70 -330 -288 -252 -533 49 -152 214 -250 415
-246 185 4 315 78 382 218 28 58 32 78 35 161 4 143 -31 236 -118 314 -106 96
-307 134 -462 86z m248 -187 c113 -58 145 -242 58 -340 -32 -36 -97 -64 -150
-65 -125 0 -206 87 -205 222 1 154 160 252 297 183z"/>
<path d="M27862 16109 c-11 -4 -27 -40 -45 -100 -16 -52 -51 -166 -79 -254
-28 -88 -61 -196 -75 -240 -14 -44 -31 -99 -39 -123 -8 -23 -14 -45 -14 -47 0
-3 53 -5 118 -5 l117 0 18 60 17 61 137 -3 137 -3 16 -55 16 -55 117 -3 c69
-1 117 1 117 7 0 5 -18 65 -39 133 -39 121 -97 309 -163 520 -30 99 -35 108
-58 108 -180 4 -284 4 -298 -1z m203 -343 l43 -146 -89 0 c-49 0 -89 3 -89 7
0 17 84 293 88 289 2 -3 23 -70 47 -150z"/>
<path d="M13120 15725 l0 -386 112 3 113 3 0 383 0 382 -112 0 -113 0 0 -385z"/>
<path d="M14080 15725 l0 -385 105 0 105 0 0 242 c0 274 -7 266 81 103 29 -55
73 -136 96 -180 24 -44 53 -99 65 -122 l22 -43 123 0 123 0 0 385 0 385 -105
0 -105 0 0 -235 c0 -129 -3 -235 -7 -235 -5 0 -64 106 -133 235 l-125 235
-122 0 -123 0 0 -385z"/>
<path d="M15470 16017 l0 -93 118 1 117 0 3 -292 2 -293 113 0 112 0 0 292 0
293 113 1 c61 1 116 2 120 3 4 0 8 42 8 91 l-1 90 -352 0 -353 0 0 -93z"/>
<path d="M16862 15725 l0 -385 299 0 299 0 1 35 c0 19 1 55 1 80 0 25 -1 49
-1 54 -1 5 -78 9 -173 9 -95 0 -181 1 -190 1 -15 1 -18 11 -18 66 l0 65 128 1
c70 1 148 1 175 0 52 -1 49 -7 49 84 0 19 -1 42 -1 50 -1 13 -27 15 -176 15
l-175 0 0 65 0 65 148 1 c81 1 164 0 185 -1 41 -2 39 -7 39 105 0 84 34 75
-296 75 l-294 0 0 -385z"/>
<path d="M18160 15725 l0 -386 113 3 112 3 0 122 -1 122 26 3 c22 3 39 -15
124 -124 l98 -128 132 0 c72 0 126 4 121 8 -12 8 -215 250 -215 256 0 2 19 11
43 20 24 9 58 31 76 48 55 54 66 84 66 178 -1 74 -4 90 -27 125 -35 55 -64 80
-123 107 -47 22 -64 23 -297 26 l-248 3 0 -386z m418 206 c33 -17 52 -52 52
-93 0 -68 -64 -102 -180 -96 l-65 3 0 95 c-1 52 1 98 3 102 5 12 165 2 190
-11z"/>
<path d="M19570 15725 l0 -385 105 0 105 0 0 242 c0 273 -6 264 75 113 26 -49
67 -124 89 -165 23 -41 54 -101 70 -132 l29 -58 124 0 123 0 0 385 0 385 -105
0 -105 0 0 -235 c0 -129 -4 -235 -8 -235 -4 0 -20 24 -35 53 -14 28 -60 115
-102 192 -42 77 -85 159 -97 183 l-22 42 -123 0 -123 0 0 -385z"/>
<path d="M22330 16017 l0 -92 118 0 117 0 3 -292 2 -293 113 0 112 0 -1 283
c0 155 1 287 3 292 2 7 46 10 114 10 60 0 113 2 117 5 5 3 8 44 8 93 l-1 87
-352 0 -353 0 0 -93z"/>
<path d="M23720 15725 l0 -386 112 3 113 3 0 383 0 382 -112 0 -113 0 0 -385z"/>
<path d="M26210 15725 l0 -385 105 0 105 0 0 235 c0 129 4 235 8 235 4 0 15
-15 23 -32 15 -33 70 -136 138 -258 20 -36 50 -91 66 -122 l30 -58 123 0 122
0 0 385 0 385 -105 0 -105 0 0 -242 c0 -208 -2 -240 -14 -223 -13 19 -35 60
-188 348 l-63 117 -122 0 -123 0 0 -385z"/>
<path d="M29100 15725 l0 -385 279 0 278 0 1 95 0 95 -66 1 c-37 0 -112 0
-167 0 l-100 0 0 289 0 290 -112 0 -113 0 0 -385z"/>
<path d="M14589 14390 c-19 -5 -28 -22 -50 -95 -15 -50 -41 -133 -57 -185 -38
-121 -142 -449 -149 -472 -5 -16 5 -18 113 -18 l119 0 18 60 17 61 137 -3 137
-3 16 -55 16 -55 117 -3 c64 -1 117 0 117 4 0 3 -27 95 -61 203 -33 108 -86
278 -117 379 l-56 182 -96 1 c-52 0 -118 1 -147 2 -29 1 -62 0 -74 -3z m196
-344 l43 -146 -89 0 c-49 0 -89 3 -89 7 0 17 84 293 88 289 2 -3 23 -70 47
-150z"/>
<path d="M13070 14297 l0 -92 118 0 117 0 3 -293 2 -293 113 3 112 3 0 290 0
290 110 1 c61 1 115 2 120 3 7 0 11 37 11 91 l-1 90 -352 0 -353 0 0 -93z"/>
<path d="M15820 14005 l0 -385 279 0 278 0 0 95 c0 81 -2 95 -16 96 -9 0 -83
1 -166 2 l-150 2 0 288 0 287 -112 0 -113 0 0 -385z"/>
<path d="M17083 14005 l0 -385 298 0 c165 0 299 3 300 8 1 15 1 138 0 154 -1
15 -19 17 -173 17 -95 0 -181 0 -190 0 -15 1 -18 11 -18 66 l0 65 38 1 c20 0
99 0 175 -1 l137 0 1 30 c0 16 1 44 1 60 0 17 -1 37 -1 45 -1 13 -28 15 -176
15 l-175 0 0 65 c0 55 3 65 18 66 9 0 92 0 185 -1 l167 -1 1 28 c0 15 1 56 2
91 l2 62 -296 0 -296 0 0 -385z"/>
<path d="M18380 14005 l0 -385 105 0 105 0 2 242 3 241 64 -119 c36 -65 84
-155 108 -199 24 -44 53 -99 65 -122 l22 -43 123 0 123 0 0 385 0 385 -105 0
-105 0 0 -235 c0 -129 -4 -235 -8 -235 -4 0 -15 15 -23 33 -15 32 -70 135
-138 257 -20 36 -50 91 -66 122 l-30 58 -122 0 -123 0 0 -385z"/>
<path d="M19782 14298 l3 -93 118 0 117 0 0 -293 0 -293 113 3 112 3 0 288 c0
158 2 288 5 288 3 1 57 2 120 3 l115 1 0 93 0 92 -353 0 -353 0 3 -92z"/>
</g>
</svg>
